<svg
  width="34"
  height="34"
  viewBox="-0.2 0 34 24"
  version="1.1"
  xmlns="http://www.w3.org/2000/svg"
>
  <defs>
    <clipPath id="clip-rect">
      <rect x="0" y="0" width="34" height="24.041" />
    </clipPath>
    <clipPath id="clip-shape">
      <path
        d="
          M14.4083333,13.5438333
          L20.7537892,13.5438333
          C24.7183912,13.5438333 27.9521667,16.7692486 27.9521667,20.748
          C27.9521667,24.7186554 24.7293433,27.9521667 20.7537892,27.9521667
          L7.19837747,27.9521667
          C3.23036904,27.9490339 0,24.7274112 0,20.7537892
          L0,7.19837747
          C0,3.2337755 3.22541528,0 7.20416667,0
          C11.1748221,0 14.4083333,3.22282337 14.4083333,7.19837747
          L14.4083333,13.5438333
          Z
        "
      />
    </clipPath>
  </defs>
  <g fill="none" fill-rule="evenodd" clip-path="url(#clip-rect)">
    <g transform="rotate(135, 14.804, 15.974)">
      <use fill="#FFF" href="#clip-shape" />
      <g clip-path="url(#clip-shape)">
        <polygon
          fill="#FFC021"
          points="
            7.204 20.748
            14.408 13.544
            28.94 13.544
            28.94 27.952
            7.204 27.952
          "
        />
        <polygon
          fill="#0FA5A5"
          points="
            -0.188 -1.235
            14.759 -1.091
            14.408 13.544
            7.575 20.501
            0 20.501
          "
        />
        <path
          fill="#3BC4A1"
          d="
            M14.4083333,13.5438333
            L14.4083333,20.7537892
            C14.4083333,24.7183912 11.1829181,27.9521667 7.20416667,27.9521667
            C7.20223693,27.9521667 7.20030738,27.9521659 7.19837799,27.9521644
            C3.23377477,27.9521659 0,24.7267509 0,20.748
            C0,16.7773446 3.22282337,13.5438333 7.19837747,13.5438333
            L14.4083333,13.5438333
            Z
          "
        />
      </g>
    </g>
  </g>
</svg>